<?xml version="1.0" encoding="UTF-8"?>
<svg id="Calque_2" data-name="Calque 2" xmlns="http://www.w3.org/2000/svg" viewBox="0 0 56.14 60.86">
  <defs>
    <style>
      .cls-1 {
        fill: #20ad83;
      }

      .cls-2 {
        fill: #e73358;
      }

      .cls-3 {
        fill: #ef7875;
      }

      .cls-4 {
        fill: #ffcb00;
      }

      .cls-5 {
        fill: #9acda3;
      }
    </style>
  </defs>
  <g id="Calque_1-2" data-name="Calque 1">
    <path class="cls-3" d="m37.08,45.26c-.07,0-.14,0-.21-.02-.54-.12-.88-.65-.76-1.19L45.54.78c.12-.54.65-.88,1.19-.76.54.12.88.65.76,1.19l-9.44,43.27c-.1.47-.52.78-.97.78Z"/>
    <path class="cls-1" d="m37.08,45.26c-.1,0-.2-.02-.31-.05-.52-.17-.81-.73-.64-1.25l8.83-27.42c.17-.52.73-.81,1.25-.64.52.17.81.73.64,1.25l-8.83,27.42c-.14.42-.53.69-.95.69Z"/>
    <path class="cls-2" d="m37.07,45.26c-.16,0-.33-.04-.48-.12-.48-.26-.66-.87-.39-1.35l17.09-31.18c.26-.48.87-.66,1.35-.39.48.26.66.87.39,1.35l-17.09,31.18c-.18.33-.52.52-.88.52Z"/>
    <path class="cls-5" d="m37.07,45.26c-.2,0-.41-.06-.59-.19-.45-.32-.54-.95-.22-1.39l10.94-15.03c.32-.45.95-.54,1.39-.22.45.32.54.95.22,1.39l-10.94,15.03c-.2.27-.5.41-.81.41Z"/>
    <path class="cls-4" d="m37.08,45.26c-.23,0-.47-.08-.66-.25-.41-.36-.45-.99-.09-1.41l18.07-20.53c.36-.41.99-.45,1.41-.09.41.36.45.99.09,1.41l-18.07,20.53c-.2.22-.47.34-.75.34Z"/>
    <path class="cls-3" d="m37.02,45.2c-.26,0-.53-.1-.73-.31-.38-.4-.36-1.03.04-1.41l10.83-10.2c.4-.38,1.03-.36,1.41.04.38.4.36,1.03-.04,1.41l-10.83,10.2c-.19.18-.44.27-.68.27Z"/>
    <path class="cls-1" d="m37.08,45.26c-.32,0-.64-.15-.83-.44-.31-.46-.19-1.08.27-1.38l15.89-10.68c.46-.31,1.08-.19,1.38.27.31.46.19,1.08-.27,1.38l-15.89,10.68c-.17.11-.36.17-.56.17Z"/>
    <path class="cls-2" d="m37.08,45.26c-.37,0-.72-.2-.89-.55-.25-.49-.04-1.09.45-1.34l8.44-4.19c.49-.24,1.09-.04,1.34.45.25.49.04,1.09-.45,1.34l-8.44,4.19c-.14.07-.29.1-.44.1Z"/>
    <path class="cls-5" d="m37.07,45.26c-.45,0-.86-.31-.97-.77-.13-.54.2-1.07.74-1.2l16.26-3.88c.53-.13,1.07.2,1.2.74.13.54-.2,1.07-.74,1.2l-16.26,3.88c-.08.02-.16.03-.23.03Z"/>
    <path class="cls-4" d="m46.18,47.99c-.09,0-.19-.01-.29-.04l-9.11-2.73c-.53-.16-.83-.71-.67-1.24.16-.53.72-.82,1.24-.67l9.11,2.73c.53.16.83.71.67,1.24-.13.43-.53.71-.95.71Z"/>
    <path class="cls-3" d="m49.67,53.37c-.18,0-.37-.05-.54-.16l-12.59-8.1c-.46-.3-.6-.91-.3-1.38.3-.46.92-.6,1.38-.3l12.59,8.1c.46.3.6.91.3,1.38-.19.3-.51.46-.84.46Z"/>
    <path class="cls-2" d="m37.08,45.26c-.28,0-.56-.12-.76-.35l-15.78-18.33c-.36-.42-.31-1.05.1-1.41.42-.36,1.05-.31,1.41.1l15.78,18.33c.36.42.31,1.05-.1,1.41-.19.16-.42.24-.65.24Z"/>
    <path class="cls-1" d="m42.79,53.09c-.31,0-.61-.14-.81-.41l-5.71-7.83c-.32-.45-.23-1.07.22-1.39.45-.32,1.07-.23,1.39.22l5.71,7.83c.32.45.23,1.07-.22,1.39-.18.13-.38.19-.59.19Z"/>
    <path class="cls-5" d="m37.08,45.26c-.34,0-.67-.18-.86-.49l-6.67-11.3c-.28-.47-.12-1.09.35-1.37.47-.28,1.09-.12,1.37.35l6.67,11.3c.28.47.12,1.09-.35,1.37-.16.09-.33.14-.51.14Z"/>
    <path class="cls-3" d="m37.08,45.26c-.41,0-.8-.26-.94-.67l-6.77-19.43c-.18-.52.09-1.09.61-1.27.52-.18,1.09.09,1.27.61l6.77,19.43c.18.52-.09,1.09-.61,1.27-.11.04-.22.06-.33.06Z"/>
    <path class="cls-1" d="m37.07,45.25c-.23,0-.46-.08-.65-.24L11.85,23.74c-.42-.36-.46-.99-.1-1.41.36-.42.99-.46,1.41-.1l24.57,21.27c.42.36.46.99.1,1.41-.2.23-.48.34-.75.34Z"/>
    <path class="cls-4" d="m37.07,45.26c-.48,0-.91-.35-.99-.85l-4.08-27.03c-.08-.54.29-1.05.84-1.13.54-.08,1.05.29,1.13.84l4.08,27.03c.08.54-.29,1.05-.84,1.13-.05,0-.1.01-.15.01Z"/>
    <path class="cls-4" d="m37.07,45.25c-.17,0-.33-.04-.49-.13l-26.59-15.01c-.48-.27-.65-.88-.38-1.36.27-.48.88-.65,1.36-.38l26.59,15.01c.48.27.65.88.38,1.36-.18.32-.52.51-.87.51Z"/>
    <path class="cls-2" d="m37.08,45.26c-.38,0-.74-.22-.91-.58l-3.3-7.18c-.23-.5-.01-1.09.49-1.32.5-.23,1.09-.01,1.32.49l3.3,7.18c.23.5.01,1.09-.49,1.32-.14.06-.28.09-.42.09Z"/>
    <path class="cls-2" d="m37.51,59.8c-.54,0-.98-.43-1-.97l-.44-14.53c-.02-.55.42-1.01.97-1.03.56-.01,1.01.42,1.03.97l.44,14.53c.02.55-.42,1.01-.97,1.03h-.03Z"/>
    <path class="cls-3" d="m35.3,52.89c-.08,0-.15,0-.23-.03-.54-.12-.87-.66-.75-1.2l1.77-7.62c.12-.54.66-.87,1.2-.75.54.12.87.66.75,1.2l-1.77,7.62c-.11.46-.52.77-.97.77Z"/>
    <path class="cls-4" d="m27.68,60.86c-.18,0-.35-.05-.51-.14-.47-.28-.62-.9-.34-1.37l9.39-15.59c.28-.47.9-.62,1.37-.34.47.28.62.9.34,1.37l-9.39,15.59c-.19.31-.52.48-.85.48Z"/>
    <path class="cls-5" d="m27.47,52.53c-.3,0-.6-.14-.8-.4-.33-.44-.25-1.06.19-1.4l9.61-7.27c.44-.33,1.06-.25,1.4.19.33.44.25,1.06-.19,1.4l-9.61,7.27c-.18.14-.39.2-.6.2Z"/>
    <path class="cls-1" d="m37.08,45.26s-.03,0-.04,0L.96,43.77c-.55-.02-.98-.49-.95-1.04.02-.55.53-.99,1.04-.96l36.08,1.49c.55.02.98.49.95,1.04-.02.54-.46.96-.99.96Z"/>
    <path class="cls-2" d="m37.06,45.24c-.07,0-.13,0-.2-.02l-14.37-2.93c-.54-.11-.89-.64-.78-1.18.11-.54.64-.88,1.18-.78l14.37,2.93c.54.11.89.64.78,1.18-.1.47-.51.8-.98.8Z"/>
    <path class="cls-5" d="m37.08,45.26c-.13,0-.26-.02-.38-.08l-20.36-8.47c-.51-.21-.75-.79-.54-1.3s.8-.75,1.3-.54l20.36,8.47c.51.21.75.79.54,1.3-.16.38-.53.61-.92.61Z"/>
    <path class="cls-3" d="m37.07,45.26c-.2,0-.4-.06-.58-.18l-13.54-9.61c-.45-.32-.55-.94-.24-1.39.32-.45.94-.55,1.39-.24l13.54,9.61c.45.32.55.94.24,1.39-.19.27-.5.42-.81.42Z"/>
  </g>
</svg>